<svg xmlns="http://www.w3.org/2000/svg" xmlns:xlink="http://www.w3.org/1999/xlink" viewBox="0 0 442.51 212.04"><defs><style>.cls-1{fill:#464646;}.cls-2{fill:url(#linear-gradient);}</style><linearGradient id="linear-gradient" x1="125.01" y1="0.22" x2="-53.05" y2="274.11" gradientUnits="userSpaceOnUse"><stop offset="0" stop-color="#f8a101"/><stop offset="0.32" stop-color="#f34701"/><stop offset="0.54" stop-color="#b92c03"/><stop offset="1" stop-color="#2c2c32"/></linearGradient></defs><g id="Layer_2" data-name="Layer 2"><g id="Layer_1-2" data-name="Layer 1"><polygon class="cls-1" points="178.59 74.83 209.55 74.83 209.55 62.41 178.59 62.41 178.59 44.73 213.66 44.73 213.66 32.31 163.11 32.31 163.11 99.19 178.59 99.19 178.59 74.83"/><rect class="cls-1" x="223.16" y="32.31" width="14.91" height="66.89"/><path class="cls-1" d="M282.43,92.72V99.2h14V69.86q0-11.76-6.5-17.3T271.64,47a45,45,0,0,0-12,1.63,32.24,32.24,0,0,0-10.13,4.58l5.35,10.42a21.25,21.25,0,0,1,6.74-3.49,25.9,25.9,0,0,1,8.07-1.29q6,0,8.93,2.68A9.58,9.58,0,0,1,281.48,69H269.63q-7.83,0-12.71,2a14.67,14.67,0,0,0-7.11,5.4,15.16,15.16,0,0,0,0,16,15.74,15.74,0,0,0,6.6,5.59,23.86,23.86,0,0,0,10.32,2q6.78,0,11.08-2.58A12.94,12.94,0,0,0,282.43,92.72Zm-11.94-2.79a10.08,10.08,0,0,1-6.16-1.68,5.34,5.34,0,0,1-2.25-4.53,5.5,5.5,0,0,1,2-4.3q2-1.73,7.21-1.72h10.23V83a10.12,10.12,0,0,1-4.3,5.21A12.79,12.79,0,0,1,270.49,89.93Z"/><path class="cls-1" d="M349.55,92.08a13.38,13.38,0,0,0,2.87-8.46,13.24,13.24,0,0,0-1.72-7.12,12.8,12.8,0,0,0-4.45-4.3,24.09,24.09,0,0,0-6.06-2.44,56.87,56.87,0,0,0-6.65-1.29c-2.19-.28-4.21-.62-6.06-1A15,15,0,0,1,323,65.94a3.09,3.09,0,0,1-1.68-2.86,3.94,3.94,0,0,1,2.3-3.44c1.53-.9,3.95-1.34,7.26-1.34a34.89,34.89,0,0,1,7.31.81,25.42,25.42,0,0,1,7.5,3l5-10.61a29.1,29.1,0,0,0-9.08-3.34A51.49,51.49,0,0,0,330.92,47a34.41,34.41,0,0,0-12.81,2.15,18.71,18.71,0,0,0-8.17,5.88,13.84,13.84,0,0,0-2.81,8.6,13.69,13.69,0,0,0,1.67,7.17,12.45,12.45,0,0,0,4.44,4.39,22.32,22.32,0,0,0,6.12,2.44q3.34.81,6.64,1.29t6.06,1a14.61,14.61,0,0,1,4.45,1.39A2.93,2.93,0,0,1,338.18,84,3.81,3.81,0,0,1,336,87.44q-2.14,1.25-7.31,1.24a34.51,34.51,0,0,1-9.51-1.38,33.26,33.26,0,0,1-8.36-3.58l-5,10.7a31.42,31.42,0,0,0,9.61,4A50.13,50.13,0,0,0,328.15,100a36.25,36.25,0,0,0,13.13-2.1A18.92,18.92,0,0,0,349.55,92.08Z"/><path class="cls-1" d="M433.23,100a9.06,9.06,0,0,0,9.27-9.36A8.75,8.75,0,0,0,439.83,84a9.8,9.8,0,0,0-13.14,0A8.66,8.66,0,0,0,424,90.6a8.92,8.92,0,0,0,2.73,6.73A9.07,9.07,0,0,0,433.23,100Z"/><path class="cls-1" d="M376.82,73.78a17.08,17.08,0,0,1,1.58-7.84,10.27,10.27,0,0,1,4.39-4.54,13.56,13.56,0,0,1,6.36-1.48q5,0,7.69,3t2.72,9.18V99.2h14.91V69.76q0-7.83-2.77-12.85a17.67,17.67,0,0,0-7.6-7.45A23.86,23.86,0,0,0,393.16,47a24.51,24.51,0,0,0-11.75,2.77,19.54,19.54,0,0,0-4.59,3.4V32.31H361.91V99.2h14.91Z"/><polygon class="cls-1" points="163.14 125.17 174.8 125.17 174.8 167.41 163.14 167.41 163.14 179.74 201.84 179.74 201.84 167.41 190.28 167.41 190.28 125.17 201.84 125.17 201.84 112.85 163.14 112.85 163.14 125.17"/><path class="cls-1" d="M251,130A23.89,23.89,0,0,0,240,127.56a24.55,24.55,0,0,0-11.76,2.77,19.22,19.22,0,0,0-5.25,4.18v-6.18H208.78v51.41h14.91V154.32a17.09,17.09,0,0,1,1.57-7.84,10.29,10.29,0,0,1,4.4-4.54,13.54,13.54,0,0,1,6.35-1.48q5,0,7.7,3t2.72,9.18v27.14h14.91V150.3q0-7.83-2.78-12.85A17.64,17.64,0,0,0,251,130Z"/><path class="cls-1" d="M309.37,133.73a17.39,17.39,0,0,0-4-3.3A22,22,0,0,0,294,127.56a26.47,26.47,0,0,0-13.09,3.25,23.89,23.89,0,0,0-9.22,9.17,30.6,30.6,0,0,0,0,28,24.09,24.09,0,0,0,9.22,9.22A26.09,26.09,0,0,0,294,180.5a22.36,22.36,0,0,0,11.61-2.87,16.71,16.71,0,0,0,4.45-3.87v6h14.23V108.83h-14.9Zm-1.48,27.9a12.74,12.74,0,0,1-4.73,4.92,12.9,12.9,0,0,1-6.6,1.72,13.07,13.07,0,0,1-6.69-1.72,12.66,12.66,0,0,1-4.73-4.92,17.38,17.38,0,0,1,0-15.24,12.69,12.69,0,0,1,4.73-4.88,13.17,13.17,0,0,1,6.69-1.72,13,13,0,0,1,6.6,1.72,12.76,12.76,0,0,1,4.73,4.88,17.38,17.38,0,0,1,0,15.24Z"/><path class="cls-1" d="M372.26,130.76a30.7,30.7,0,0,0-27.67.19,25.49,25.49,0,0,0-9.79,9.37A26.11,26.11,0,0,0,331.21,154a25.7,25.7,0,0,0,3.64,13.62,25.32,25.32,0,0,0,10.27,9.41,36.37,36.37,0,0,0,27.76,1.29,23.1,23.1,0,0,0,8.88-6.16l-7.93-8.6a17.5,17.5,0,0,1-5.68,3.72,19.32,19.32,0,0,1-7.22,1.25,17.77,17.77,0,0,1-8-1.68A12.07,12.07,0,0,1,347.7,162a13.25,13.25,0,0,1-1.46-3.77h38.87c.06-.64.12-1.33.19-2.06s.09-1.38.09-2a27.6,27.6,0,0,0-3.53-14.28A24.08,24.08,0,0,0,372.26,130.76Zm-26.19,18.78a13.15,13.15,0,0,1,1.39-4.35,11.69,11.69,0,0,1,4.54-4.68,13.33,13.33,0,0,1,6.73-1.67,13.08,13.08,0,0,1,6.69,1.67,11.9,11.9,0,0,1,4.49,4.63,13.08,13.08,0,0,1,1.42,4.4Z"/><polygon class="cls-1" points="422.63 153.47 441.75 128.33 425.89 128.33 414.72 143.34 403.81 128.33 387.09 128.33 406.2 153.8 386.42 179.74 402.67 179.74 414.34 163.99 425.6 179.74 442.51 179.74 422.63 153.47"/><path class="cls-2" d="M122.15,70.91c-2.34.11-4.67.36-7,.59q-10.86,1.06-21.71,2.16l-11,1.1c.27-.63.48-1.14.72-1.64q6.7-14.45,13.4-28.88c4.28-9.25,8.51-18.51,12.78-27.76,1.66-3.58,3.4-7.13,5-10.72A4,4,0,0,0,110.54,0a5,5,0,0,0-3.71,2.05q-7.39,9.33-14.77,18.68Q80.93,34.83,69.82,48.94,58.3,63.54,46.76,78.11c-.94,1.2-.91,1.34.51,2,3.32,1.54,6.69,3,10,4.62,4.58,2.29,9.19,4.52,12.64,8.52C74.5,98.62,75,107.12,69,112.48c-3.9,3.45-8.59,4.79-13.63,4.9-9.43.2-17.75-3-25.26-8.58a24.94,24.94,0,0,1-4.74-4.27,2.49,2.49,0,0,1,.78.27,65.71,65.71,0,0,0,22.82,7.28c4.44.5,8.83.25,12.9-1.9,6.12-3.23,6.84-9.79,1.63-14.33a27.49,27.49,0,0,0-6.26-4C51.53,89.09,45.77,86.57,40,84.15,35,82.1,30.09,80,25.08,78.13A9.56,9.56,0,0,0,13,82.67a17.77,17.77,0,0,0-1.2,3.44c-3.68,11.4-7.33,22.8-11,34.19a14,14,0,0,0-.57,6.94c1.59,8.59,9.7,14,18.55,12.19,11.46-2.29,23-4.16,34.58-6.93-3.42,7.41-6.73,14.61-10.05,21.81l-20,43.37c-1.18,2.56-2.41,5.1-3.53,7.68a4.69,4.69,0,0,0,1.83,6c1.91,1.18,4,.74,5.69-1.35q12-14.9,24-29.83l30.84-38.29,25.47-31.58Q113.85,102.69,120,95c2.89-3.58,5.86-7.1,8.69-10.73,2.07-2.66,2.8-5.69,1.22-8.84A7.78,7.78,0,0,0,122.15,70.91Z"/></g></g></svg>